<?xml version="1.0" encoding="UTF-8"?>
<svg width="280px" height="48px" viewBox="0 0 280 48" version="1.1" xmlns="http://www.w3.org/2000/svg" xmlns:xlink="http://www.w3.org/1999/xlink">
    <!-- Generator: sketchtool 51.3 (57544) - http://www.bohemiancoding.com/sketch -->
    <title>EDCC1970-3955-401D-A7D0-2B0510DFE944@1,5x</title>
    <desc>Created with sketchtool.</desc>
    <defs></defs>
    <g id="Page-1" stroke="none" stroke-width="1" fill="none" fill-rule="evenodd">
        <g id="LP" transform="translate(-594.000000, -217.000000)">
            <g id="Section-1" transform="translate(83.000000, 31.000000)">
                <g id="Logo" transform="translate(511.000000, 186.000000)">
                    <polygon id="Fill-1" fill="#000000" points="101.612361 0.12822 93.5121888 0.12822 93.5121888 46.82442 125.709185 46.82442 125.709185 39.61962 101.612361 39.61962"></polygon>
                    <polygon id="Fill-2" fill="#000000" points="191.891931 26.82354 206.019914 11.95554 196.549785 11.95554 183.14824 25.34334 183.14824 0.12834 175.524549 0.12834 175.524549 10.73214 175.524549 46.82514 183.14824 46.82514 183.14824 36.22074 186.62 32.68674 197.783348 46.82514 207.449356 46.82514"></polygon>
                    <path d="M232.884893,40.3752 C229.75382,40.3752 227.098627,38.9472 227.098627,34.3938 L227.098627,18.42 L236.083863,18.42 L236.083863,11.8272 L220.393648,11.8272 L227.307725,5.175 L227.307725,0 L222.58618,0 L210.739657,11.8308 L210.739657,18.4164 L213.421888,18.4164 L219.474936,18.42 L219.474936,35.9568 C219.407639,43.8414 224.171845,47.2404 231.047468,47.2404 C233.497768,47.2404 234.859313,47.0364 236.152361,46.8324 L236.152361,40.0362 C235.335794,40.1718 234.314936,40.3752 232.884893,40.3752" id="Fill-3" fill="#000000"></path>
                    <path d="M165.373648,28.53996 C165.373648,17.93616 159.043004,11.34336 149.03691,11.34336 C138.895622,11.34336 131.611416,18.07176 131.611416,29.42376 C131.611416,40.70676 138.962918,47.50476 149.241803,47.50476 C157.760172,47.50476 164.125064,42.00396 165.033562,35.94936 L157.341373,35.94936 C156.389013,39.07596 153.461631,40.91136 149.03691,40.91136 C143.727124,40.91136 140.120172,37.58016 139.712189,32.27856 L165.373648,32.27856 L165.373648,28.53996 Z M139.780086,26.29656 C140.18867,20.85936 143.863519,17.86896 148.969013,17.86896 C154.618884,17.86896 157.477768,21.26736 157.682661,26.29656 L139.780086,26.29656 Z" id="Fill-4" fill="#000000"></path>
                    <path d="M251.719399,29.29608 C251.719399,36.70488 256.075622,40.78308 261.997682,40.78308 C267.716052,40.78308 271.869185,37.11288 271.869185,30.17928 L271.869185,28.34448 C271.869185,21.47928 267.716052,17.74068 261.997682,17.74068 C256.075622,17.74068 251.719399,21.88728 251.719399,29.29608 Z M272.275966,46.69668 L272.275966,41.87148 C270.370043,45.06468 266.219313,47.37648 260.772532,47.37648 C251.039828,47.37648 243.959313,40.37508 243.959313,29.29608 C243.959313,18.14928 251.039828,11.21568 260.772532,11.21568 C266.013219,11.21568 269.962661,13.32228 271.869185,16.04268 L271.869185,11.82768 L279.491073,11.82768 L279.491073,46.69668 L272.275966,46.69668 Z" id="Fill-5" fill="#000000"></path>
                    <polygon id="Fill-6" fill="#BF33B3" points="46.7557339 29.3166 46.7557339 23.4804 40.9123863 23.4804 23.3781373 40.9896 23.3781373 46.8246 29.2226867 46.8246"></polygon>
                    <polygon id="Fill-7" fill="#FF3B73" points="46.7565751 17.64414 46.7565751 23.47974 52.6011245 23.47974 70.1339914 5.97114 70.1339914 0.13494 64.2906438 0.13494"></polygon>
                    <polygon id="Fill-8" fill="#FF1459" points="46.7565751 40.98858 46.7565751 46.82418 52.6011245 46.82418 70.1339914 29.31558 70.1339914 23.47938 64.2906438 23.47938"></polygon>
                    <polygon id="Fill-9" fill="#7329FF" points="0 17.64414 0 23.47974 5.84454936 23.47974 23.3775966 5.97114 23.3775966 0.13494 17.5342489 0.13494"></polygon>
                    <polygon id="Fill-10" fill="#942EDE" points="0 40.98858 0 46.82418 5.84454936 46.82418 46.755794 5.97138 46.755794 0.13518 40.9118455 0.13518"></polygon>
                </g>
            </g>
        </g>
    </g>
</svg>
