
<svg width="85px" height="370px" viewBox="0 0 85 370" version="1.1" xmlns="http://www.w3.org/2000/svg" xmlns:xlink="http://www.w3.org/1999/xlink">
    <!-- Generator: Sketch 49.1 (51147) - http://www.bohemiancoding.com/sketch -->
    <desc>Created with Sketch.</desc>
    <defs></defs>
    <g id="Page-1" stroke="none" stroke-width="1" fill="none" fill-rule="evenodd">
        <g id="LP" transform="translate(0.000000, -1579.000000)" fill="#FFFFFF">
            <g id="Section-3.1" transform="translate(-2.000000, 1349.000000)">
                <g id="Group---image" transform="translate(0.000000, 134.000000)">
                    <g id="Foto---mask">
                        <g id="Group-29" transform="translate(-140.000000, 96.000000)">
                            <polygon id="Fill-1" points="83.4066 178.932 83.4066 190.822 214.706 322.1188 226.587 322.1188 226.585 310.2118 95.3026 178.932"></polygon>
                            <polygon id="Fill-2" points="35.7867 178.93 35.7867 190.82 214.333 369.364 226.594 369.364 226.592 357.837 47.6827 178.93"></polygon>
                            <polygon id="Fill-3" points="178.794 226.727 178.794 238.614 214.705 274.5242 226.579 274.5242 226.577 262.61 190.689 226.727"></polygon>
                            <polygon id="Fill-4" points="130.988 178.931 130.988 190.817 166.899 226.728 178.794 226.728 178.794 214.836 142.883 178.931"></polygon>
                            <polygon id="Fill-5" points="178.794 178.931 178.794 190.817 214.705 226.728 226.572 226.728 226.57 214.805 190.689 178.931"></polygon>
                            <polygon id="Fill-6" points="214.706 47.63 83.4068 178.928 83.4068 190.818 95.3028 190.818 226.546 59.577 226.544 47.63"></polygon>
                            <polygon id="Fill-7" points="214.699 0.019 35.7866 178.93 35.7866 190.82 47.6826 190.82 226.539 11.966 226.537 0.019"></polygon>
                            <polygon id="Fill-8" points="214.705 95.225 178.794 131.135 178.794 143.021 190.689 143.021 226.553 107.163 226.551 95.225"></polygon>
                            <polygon id="Fill-9" points="166.899 143.022 130.988 178.933 130.988 190.819 142.883 190.819 178.794 154.915 178.794 143.022"></polygon>
                            <polygon id="Fill-10" points="214.705 143.022 178.794 178.933 178.794 190.819 190.689 190.819 226.561 154.954 226.559 143.022"></polygon>
                            <polygon id="Fill-11" points="119.562 -5.68434189e-14 11.9375 107.625 11.9375 119.521 23.8285 119.521 143.348 -5.68434189e-14"></polygon>
                            <polygon id="Fill-12" points="167.18 -5.68434189e-14 11.9367 155.245 11.9367 167.141 23.8267 167.141 190.965 -5.68434189e-14"></polygon>
                            <polygon id="Fill-24" points="11.9376 250.301 11.9376 262.197 119.104 369.3639 142.889 369.3639 23.8286 250.301"></polygon>
                            <polygon id="Fill-25" points="11.9367 202.681 11.9367 214.577 166.722 369.364 190.507 369.364 23.8267 202.681"></polygon>
                        </g>
                    </g>
                </g>
            </g>
        </g>
    </g>
</svg>
